<svg width="66" height="67" viewBox="0 0 66 67" fill="none" xmlns="http://www.w3.org/2000/svg">
<mask id="mask0_38_877" style="mask-type:alpha" maskUnits="userSpaceOnUse" x="0" y="0" width="66" height="67">
<circle cx="33" cy="33" r="33" transform="matrix(-1 0 0 1 66 0.793945)" fill="#78AEB1"/>
</mask>
<g mask="url(#mask0_38_877)">
<circle cx="33" cy="33" r="33" transform="matrix(-1 0 0 1 65.9999 0.793945)" fill="#F8BF02"/>
<path fill-rule="evenodd" clip-rule="evenodd" d="M45.0366 24.8645C45.0366 25.5229 45.0013 26.1709 44.9329 26.8057C44.9329 26.8057 45.36 26.073 45.8131 25.8351C45.8576 25.8117 45.8988 25.7876 45.9381 25.7646L45.9382 25.7645C46.0863 25.6777 46.2094 25.6056 46.3954 25.641C46.7029 25.6994 46.6625 26.0035 46.6184 26.3365L46.6183 26.3365C46.5974 26.4941 46.5757 26.6582 46.5896 26.8057C46.5896 26.8057 46.5848 28.4763 46.3954 29.5233C46.2416 30.3739 46.1312 30.855 45.8131 31.6586C45.5635 32.2891 45.0366 33.2116 45.0366 33.2116L44.91 33.2094C44.5304 36.4071 43.3106 39.2607 41.5413 41.4057V46.2173L42.706 48.1585L40.1824 56.8938H26.0119L24.1517 46.2173V39.2291C23.1255 37.3654 22.4415 35.1827 22.2134 32.8236L22.1969 32.8233C22.1969 32.8233 21.7777 32.9307 21.5484 32.8233C21.3223 32.7175 21.297 32.5142 21.269 32.289C21.2513 32.1459 21.2324 31.994 21.1601 31.8528C21.017 31.5729 20.8499 31.3847 20.6845 31.1985C20.5068 30.9984 20.3311 30.8006 20.1896 30.4939C19.8817 29.827 19.859 29.3284 19.8298 28.6882C19.8224 28.5246 19.8145 28.3518 19.8013 28.1645C19.7944 28.0657 19.7872 27.973 19.7804 27.8846C19.7404 27.3641 19.7119 26.9938 19.8013 26.4175C19.8259 26.259 19.8251 26.0936 19.8243 25.9341C19.8224 25.5444 19.8207 25.1899 20.1896 25.0586C20.3813 24.9904 20.5166 25.0141 20.7037 25.0469C20.7256 25.0507 20.7483 25.0547 20.7719 25.0586C21.5302 25.1861 22.1969 26.4175 22.1969 26.4175C22.1532 25.9073 22.1307 25.3892 22.1307 24.8645C22.1307 16.9311 27.2584 10.4998 33.5837 10.4998C39.909 10.4998 45.0366 16.9311 45.0366 24.8645Z" fill="#EACBAF"/>
<path d="M39.0168 13.6057C37.1129 12.8543 35.7644 14.0895 33.7756 13.6057C32.5856 13.3162 32.0872 12.4982 30.8638 12.441C29.1025 12.3586 28.1475 13.2601 26.7873 14.3822C25.7915 15.2037 25.0957 15.6934 24.652 16.9057C24.2092 18.116 25.0949 18.9955 24.652 20.2057C24.2084 21.418 22.9172 21.502 22.5168 22.7292C22.1876 23.7382 22.5168 25.4469 22.5168 25.4469V28.941C22.5168 28.941 21.2959 26.5147 20.7697 24.8645C20.2051 23.0939 19.9551 22.0576 19.7991 20.2057C19.6909 18.9215 19.466 18.1507 19.7991 16.9057C20.1958 15.4229 20.7103 14.5319 21.9344 13.6057C23.0814 12.7379 23.9955 12.5648 25.4285 12.441H26.7873L26.205 11.8587C26.205 11.8587 25.9631 10.5214 26.205 9.72336C26.6252 8.33734 28.9226 7.19983 28.9226 7.19983C28.9226 7.19983 31.8267 6.01674 33.7756 6.03512C35.6509 6.05282 38.4344 7.19983 38.4344 7.19983C38.4344 7.19983 41.7222 9.19564 43.4815 10.8881C45.0344 12.382 46.1599 13.1641 46.9756 15.1587C47.7266 16.9951 47.6516 18.2239 47.5579 20.2057C47.4589 22.3001 46.5873 25.8351 46.5873 25.8351C46.5873 25.8351 46.1991 25.2528 45.6168 26.0292C45.0344 26.8057 44.6462 29.5234 44.6462 29.5234V26.8057C44.6462 26.8057 44.9596 24.7557 44.6462 23.5057C44.2825 22.0554 43.0686 21.656 42.705 20.2057C42.3916 18.9557 43.1242 18.1244 42.705 16.9057C42.0763 15.0781 40.8145 14.3152 39.0168 13.6057Z" fill="black"/>
<path d="M29.6999 52.6233C30.5375 53.1482 31.1163 53.3038 31.8352 53.9821C32.7528 54.848 33.5823 56.6998 33.5823 56.6998C33.5823 56.6998 34.4796 55.4746 35.1352 54.7586C36.7022 53.0471 38.4298 52.9475 39.794 51.0704C40.731 49.7811 41.1529 47.3821 41.1529 47.3821L41.5411 43.3057H41.7352L42.7058 45.6351L60.3705 54.7586C60.3705 54.7586 62.1981 55.1877 63.0881 55.9233C63.6269 56.3686 64.2529 57.2821 64.2529 57.2821L68.9117 67.1821H-2.52362C-2.52362 67.1821 -1.84388 64.9244 -1.35891 63.4939C-0.472934 60.8806 -0.612642 59.0048 1.16461 56.8939C2.38524 55.4441 3.458 55.0151 5.04697 53.9821C8.14575 51.9678 13.5881 49.9057 13.5881 49.9057L22.3234 45.441L24.0705 43.3057C24.0705 43.3057 24.0541 44.668 24.0705 45.441C24.0945 46.5677 24.1668 46.9477 24.6529 47.9645C25.152 49.0085 25.4183 49.6402 26.2058 50.488C27.2941 51.6597 28.3448 51.7741 29.6999 52.6233Z" fill="#12373F"/>
</g>
</svg>
