<svg width="66" height="67" viewBox="0 0 66 67" fill="none" xmlns="http://www.w3.org/2000/svg">
<circle cx="33" cy="33.7939" r="33" fill="#F8BF02"/>
<mask id="mask0_38_893" style="mask-type:alpha" maskUnits="userSpaceOnUse" x="0" y="0" width="66" height="67">
<circle cx="33" cy="33.7939" r="33" fill="#D9D9D9"/>
</mask>
<g mask="url(#mask0_38_893)">
<path d="M50.4725 33.4056C50.4725 35.9698 50.4412 38.4461 50.1453 40.782C49.9119 42.625 49.5139 44.3806 48.8367 46.0232C48.4768 46.8962 48.0807 47.7373 47.6512 48.5426C47.2916 49.2169 46.9086 49.8661 46.5038 50.4879C45.4472 52.1112 44.2423 53.5481 42.9183 54.7585C39.9668 57.4569 36.4238 59.0291 32.6137 59.0291C28.6243 59.0291 24.9278 57.3055 21.8964 54.3703C20.7339 53.2447 19.6693 51.941 18.7235 50.4879C18.6327 50.3485 18.5431 50.2077 18.4546 50.0656C17.5724 48.6495 16.8007 47.0995 16.1577 45.4409C15.8414 44.625 15.6165 43.7828 15.4578 42.9173C14.9184 39.9764 15.1431 36.7666 15.1431 33.4056C15.1431 32.3543 15.1827 31.3178 15.2602 30.2997C16.2268 17.6129 23.0862 7.78204 32.6137 7.78204C41.6185 7.78204 48.5372 16.5641 50.1269 28.2391C50.3541 29.9079 50.4725 31.6358 50.4725 33.4056Z" fill="#C18D77"/>
<path d="M47.6512 48.5426C47.2916 49.2169 46.9086 49.8661 46.5038 50.4879C45.4472 52.1112 44.2423 53.5481 42.9183 54.7585C39.9668 57.4569 36.4238 59.0291 32.6137 59.0291C28.6243 59.0291 24.9278 57.3055 21.8964 54.3703C20.7339 53.2447 19.6693 51.941 18.7235 50.4879C18.6327 50.3485 18.5431 50.2077 18.4546 50.0656C18.5049 50.3944 18.5934 51.1566 18.4274 51.6526C18.2882 52.0689 18.1753 52.3171 17.8607 52.6232C17.357 53.1134 16.9783 53.0115 16.1577 53.2056C15.3372 53.3997 13.1338 53.7738 11.2607 54.3703C8.15804 55.3583 3.69012 57.8644 3.69012 57.8644V82.5173H62.1195V56.5056C62.1195 56.5056 58.7222 54.1785 56.296 53.2056C54.1114 52.3296 51.2489 51.8467 50.4725 51.6526C49.696 51.4585 48.3372 51.2644 47.9489 51.0703C47.5607 50.8762 47.5607 49.9056 47.5607 49.9056L47.6512 48.5426Z" fill="#C18D77"/>
<path d="M15.1431 33.4056C15.1431 32.3543 15.1827 31.3178 15.2602 30.2997C15.2602 30.2997 14.9917 29.9879 14.7548 29.9115C14.5384 29.8416 14.3869 29.8358 14.1725 29.9115C13.815 30.0376 13.5761 30.3544 13.396 30.6879C13.064 31.3029 13.0078 31.7361 13.0078 32.435C13.0078 33.0173 13.0885 33.2754 13.2019 33.7938C13.2891 34.1926 13.3927 34.4071 13.5901 34.7644C13.7223 35.0036 13.8505 35.1052 13.9784 35.3467C14.3401 36.03 14.3102 36.5169 14.3666 37.2879C14.3998 37.7416 14.3666 38.4526 14.3666 38.4526C14.3666 38.4526 14.4911 39.2956 14.3666 39.8115C14.2473 40.3058 13.7842 40.9762 13.7842 40.9762C13.7842 40.9762 13.4081 41.8308 13.5901 42.335C13.6829 42.5921 13.9784 42.9173 13.9784 42.9173C13.9784 42.9173 14.4192 43.2576 14.7548 43.3056C14.9049 43.327 15.0025 43.3625 15.1431 43.3056C15.324 43.2323 15.4578 42.9173 15.4578 42.9173C14.9184 39.9764 15.1431 36.7666 15.1431 33.4056Z" fill="#C18D77"/>
<path d="M50.1269 28.2391C50.3541 29.9079 50.4725 31.6358 50.4725 33.4056C50.4725 35.9698 50.4412 38.4461 50.1453 40.782L50.6666 41.1703C50.8403 41.2997 51.2921 41.3271 51.6372 41.1703C51.93 41.0372 52.1001 40.8865 52.2195 40.5879C52.3322 40.3064 52.2195 39.8115 52.2195 39.8115L51.8313 39.035C51.8313 39.035 51.5055 38.5917 51.4431 38.2585C51.4012 38.035 51.4431 37.6762 51.4431 37.6762L51.6372 36.5115C51.6372 36.5115 51.7467 35.8 51.8313 35.3467C52.0168 34.3525 52.2412 33.8198 52.4137 32.8232C52.505 32.295 52.5763 31.9995 52.6078 31.4644C52.6614 30.5531 52.4137 29.135 52.4137 29.135C52.4137 29.135 52.4137 28.3585 52.2195 27.9703C52.0254 27.582 51.8176 27.4459 51.4431 27.3879C51.1342 27.3401 50.9324 27.4176 50.6666 27.582C50.3842 27.7568 50.1269 28.2391 50.1269 28.2391Z" fill="#C18D77"/>
<path fill-rule="evenodd" clip-rule="evenodd" d="M41.1537 43.8879C40.4661 43.2026 39.2125 42.335 39.2125 42.335C39.2125 42.335 37.3248 40.9669 35.9125 40.7821C35.3112 40.7034 34.9185 40.5467 34.3596 40.7821C34.0102 40.9292 33.868 41.1144 33.5831 41.3644C33.3414 41.5766 33.0008 41.9468 33.0008 41.9468H32.6125C32.1745 41.887 32.021 41.5918 31.6419 41.3644C31.2629 41.137 31.1121 40.816 30.6713 40.7821C30.1643 40.7431 28.7895 41.123 28.3419 41.3644C27.2314 41.9633 27.0297 41.9768 26.0125 42.7232C25.1439 43.3607 25.1125 43.6133 24.4596 44.4703C24.0892 44.9565 23.8312 45.6244 23.6831 46.2174C23.4985 46.9565 23.8932 47.4178 24.0713 48.1585C24.1835 48.6247 24.4877 48.8446 24.4596 49.3232C24.4297 49.8309 24.1773 50.0774 23.8772 50.4879C23.4649 51.0522 23.0268 51.1731 22.5184 51.6527C22.2064 51.9469 21.7419 52.4291 21.7419 52.4291C21.7419 52.4291 22.3923 53.4252 22.9066 53.9821C24.2916 55.4815 25.5026 55.8787 27.3713 56.6997C29.0399 57.4328 30.0355 57.7762 31.836 58.0585C33.0367 58.2468 33.7329 58.376 34.9419 58.2527C36.1127 58.1332 36.7896 57.9789 37.8537 57.4762C39.2668 56.8087 39.9196 56.3133 40.9596 55.1468C41.869 54.1267 42.6473 53.4417 43.289 52.235C43.8311 51.2155 44.6478 49.7115 44.6478 49.7115L43.0949 48.5468L42.3184 47.3821L42.5125 46.2174L42.3184 45.2468C42.3184 45.2468 41.6487 44.3813 41.1537 43.8879ZM36.4949 44.0821C37.6671 44.186 38.0096 44.3422 39.4066 44.8585C39.7896 45.0001 40.5713 45.8291 40.5713 45.8291C40.5713 45.8291 40.9596 46.8089 40.9596 47.188C40.9596 48.2493 41.093 48.3137 40.7655 49.3232C40.3185 50.7009 38.2419 52.4291 38.2419 52.4291C38.2419 52.4291 35.5533 53.9253 33.5831 53.9821C31.5697 54.0401 28.7302 52.235 28.7302 52.235C28.7302 52.235 27.4695 51.1223 26.789 50.2938C26.095 49.449 25.236 47.9644 25.236 47.9644C25.236 47.9644 24.9845 47.2572 25.0419 46.7997C25.1556 45.894 25.8643 45.6 26.5949 45.0527C27.6886 44.2332 29.8949 43.8879 29.8949 43.8879C29.8949 43.8879 30.6713 43.6938 31.4478 44.0821C31.9945 44.3554 32.2043 44.7549 32.8066 44.8585C33.1055 44.91 33.4769 44.9004 33.7772 44.8585C34.349 44.7788 34.3737 44.1843 34.9419 44.0821C35.3896 44.0015 35.8908 44.0285 36.4949 44.0821Z" fill="#1E1E1E"/>
<path d="M33.5831 47.7703C33.5831 47.7703 32.4007 47.5079 31.6419 47.5762C31.0193 47.6323 30.6164 47.6288 30.089 47.9644C29.7272 48.1946 29.3125 48.7409 29.3125 48.7409C29.3125 48.7409 29.8718 49.2596 30.2831 49.5174C31.0349 49.9886 31.5514 50.105 32.4184 50.2938C33.0891 50.4399 34.1655 50.4879 34.1655 50.4879C34.1655 50.4879 35.3968 50.115 36.1066 49.7115C36.7657 49.3368 37.6596 48.5468 37.6596 48.5468C37.6596 48.5468 37.3755 48.0042 37.0772 47.7703C36.643 47.4297 36.2676 47.4363 35.7184 47.3821C34.8749 47.2988 33.5831 47.7703 33.5831 47.7703Z" fill="#1E1E1E"/>
<path d="M50.2772 36.3174C50.2772 36.3174 49.4665 33.6195 49.1125 31.8527C48.8113 30.3494 48.7175 29.4919 48.5302 27.9703C48.4463 27.289 48.5565 26.8734 48.336 26.2232C48.1398 25.6444 47.8934 25.3763 47.5596 24.8644C46.8544 23.7831 45.932 23.5278 45.4243 22.3409C45.2072 21.8335 45.1483 21.5224 45.036 20.9821C44.8504 20.0883 44.8351 19.5655 44.8419 18.6527C44.8482 17.8154 45.1721 17.3435 45.036 16.5174C44.9308 15.8783 44.7877 15.5193 44.4537 14.9644C44.0113 14.2296 43.0949 13.2174 43.0949 13.2174C43.0949 13.2174 41.8764 12.1536 40.7655 11.4703C40.7655 11.4703 39.4066 10.6938 39.2125 10.6938C38.9 10.6914 38.3204 10.735 38.0478 10.8879C37.7673 11.0453 36.689 11.8585 36.689 11.8585C36.689 11.8585 35.7655 12.2881 35.136 12.4409L33.5831 12.635C33.5831 12.635 32.5221 12.8059 31.836 12.8291C30.8482 12.8626 29.8949 12.635 29.3125 12.4409C28.5625 12.2534 28.134 12.1793 27.3713 12.0527C26.8425 11.9648 26.5485 11.8679 26.0125 11.8585C25.4014 11.8478 25.0295 11.832 24.4596 12.0527C23.9498 12.25 23.5556 12.5259 23.1008 12.8291C22.4185 13.284 21.5478 13.9938 21.5478 13.9938C21.5478 13.9938 20.7318 14.618 20.3831 15.1585C20.032 15.7028 20.014 16.0999 19.8007 16.7115C19.4613 17.6851 19.1463 18.2112 19.0243 19.235C18.9435 19.9125 19 20.3002 19.0243 20.9821C19.0567 21.8943 18.9583 22.4365 19.2184 23.3115C19.3347 23.7028 19.6066 24.2821 19.6066 24.2821C19.6066 24.2821 19.0385 25.0125 18.636 25.4468C18.3446 25.7613 18.136 25.8954 17.8596 26.2232C17.3986 26.77 17.1939 27.1293 16.889 27.7762C16.5823 28.4267 16.482 28.8258 16.3066 29.5232C15.8255 31.4361 16.1125 34.5703 16.1125 34.5703C16.1125 34.5703 15.5572 32.205 15.336 30.6879C15.1814 29.6271 15.1419 28.7468 15.1419 27.9703C15.1419 24.0254 14.7089 21.7347 15.5302 17.8762C15.825 16.491 15.9184 15.673 16.5007 14.3821C17.4112 12.3638 18.4057 11.459 19.9949 9.91736C21.5511 8.40771 22.6005 7.73311 24.4596 6.61736C26.2621 5.53554 27.2314 4.58471 29.3125 4.28795C30.2881 4.14882 30.8521 4.23328 31.836 4.28795C33.0565 4.35575 33.7547 4.3853 34.9419 4.67618C36.6242 5.08834 39.0184 6.42324 39.0184 6.42324C39.0184 6.42324 42.307 8.04829 43.8713 9.72324C45.1056 11.0448 45.4838 12.0436 46.3949 13.6056C47.2149 15.0116 47.72 15.7873 48.336 17.2938C49.3382 19.7447 49.889 23.8938 49.889 23.8938L50.2772 36.3174Z" fill="#1E1E1E"/>
<path d="M48.1431 51.0703C48.1431 51.0703 48.4374 52.2562 48.3372 53.0114C48.2298 53.8208 47.9503 54.2351 47.5607 54.9526C46.8427 56.275 46.1891 56.8962 45.0372 57.8644C43.583 59.0867 42.4863 59.3864 40.7666 60.1938C37.8585 61.5591 33.0019 62.9114 33.0019 62.9114C33.0019 62.9114 27.16 62.395 23.8784 60.7761C22.6891 60.1895 22.0284 59.8235 20.9666 59.0291C19.8927 58.2256 19.3014 57.7302 18.4431 56.6997C17.6356 55.7302 17.0499 55.1931 16.696 53.982C16.5876 53.611 16.5019 53.0114 16.5019 53.0114C16.5019 53.0114 12.7435 53.5334 10.4843 54.3703C8.98974 54.9239 6.79603 56.1173 6.79603 56.1173L3.49603 58.0585L3.69015 82.5173H62.3137L62.1196 56.5055C62.1196 56.5055 60.7486 55.3703 59.7901 54.7585C58.8467 54.1562 58.2928 53.8466 57.2666 53.3997C56.1677 52.921 54.3549 52.4291 54.3549 52.4291C54.3549 52.4291 52.3488 51.9326 51.0549 51.6526C49.9215 51.4073 48.1431 51.0703 48.1431 51.0703Z" fill="#651B34"/>
</g>
</svg>
