<svg width="66" height="67" viewBox="0 0 66 67" fill="none" xmlns="http://www.w3.org/2000/svg">
<circle cx="33" cy="33.7939" r="33" fill="#F8BF02"/>
<mask id="mask0_38_972" style="mask-type:alpha" maskUnits="userSpaceOnUse" x="0" y="0" width="66" height="67">
<circle cx="33" cy="33.7939" r="33" fill="#FED18F"/>
</mask>
<g mask="url(#mask0_38_972)">
<path d="M44.8377 27.5822C44.8377 29.5518 44.6277 31.4452 44.2405 33.2116C44.1686 33.5396 44.0905 33.8632 44.0066 34.1822C42.3287 40.559 38.292 45.0527 33.5789 45.0527C29.942 45.0527 26.7078 42.3769 24.6495 38.2247C23.9866 36.8875 23.4457 35.3972 23.0525 33.7939C22.5792 31.8639 22.3201 29.77 22.3201 27.5822C22.3201 26.6578 21.8427 25.556 21.9318 24.6704C22.1651 22.3526 21.9486 20.38 22.7083 18.4586C23.4898 16.4822 23.6359 14.5715 24.8436 13.2175C26.6956 11.1411 31.1195 10.1116 33.5789 10.1116C36.2601 10.1116 39.4099 10.7894 41.3436 13.2175C43.6818 16.1535 44.5596 21.2897 44.8042 26.2233C44.8264 26.6717 44.8377 27.1249 44.8377 27.5822Z" fill="#8C4E37"/>
<path d="M22.3201 27.5822C22.3201 27.5822 21.5222 26.8634 20.9613 26.9998C20.593 27.0894 20.3695 27.2512 20.1848 27.5822C19.9631 27.9793 20.0391 28.316 20.1848 28.7469C20.3402 29.2067 20.7829 29.266 20.9613 29.7175C21.1841 30.2815 20.8566 30.673 20.9613 31.2704C21.073 31.9084 21.2108 32.2677 21.5436 32.8233C21.793 33.2398 21.86 33.6392 22.3201 33.7939C22.5912 33.8851 23.0525 33.7939 23.0525 33.7939C22.5792 31.8639 22.3201 29.77 22.3201 27.5822Z" fill="#8C4E37"/>
<path d="M44.8042 26.2233C44.8264 26.6717 44.8377 27.1249 44.8377 27.5822C44.8377 29.5518 44.6277 31.4452 44.2405 33.2116L44.8042 33.0175C44.8042 33.0175 45.2463 32.4218 45.4201 32.0469C45.6339 31.5855 45.7227 31.3834 45.8083 30.8822C45.8985 30.3538 45.8083 29.5233 45.8083 29.5233C45.8083 29.5233 45.6838 28.6804 45.8083 28.1645C45.9276 27.6702 46.1966 26.9998 46.1966 26.9998C46.1966 26.9998 46.4036 26.3467 46.1966 26.0292C46.0472 25.8003 45.8861 25.6691 45.6142 25.641C45.2267 25.6008 44.8042 26.2233 44.8042 26.2233Z" fill="#8C4E37"/>
<path d="M44.0066 34.1822C42.3287 40.559 38.292 45.0527 33.5789 45.0527C29.942 45.0527 26.7078 42.3769 24.6495 38.2247V45.0527L24.2613 45.8292L23.2907 46.4116L22.3201 49.1292L24.2613 52.4292L28.9201 56.1175L38.626 57.4763L45.8083 55.7292L48.526 52.4292L44.8042 45.8292H43.673L44.0066 34.1822Z" fill="#8C4E37"/>
<path d="M30.2779 13.0233H32.9956C32.9956 13.0233 34.7681 12.8612 35.9073 12.8292C36.7409 12.8057 37.2103 12.7786 38.0426 12.8292C38.7278 12.8708 39.1693 12.7294 39.7897 13.0233C40.2284 13.2311 40.5569 13.3591 40.7603 13.7998C40.9509 14.2128 40.6034 14.5375 40.7603 14.9645C40.891 15.3203 41.0978 15.4516 41.3426 15.741C41.6889 16.1502 42.1659 16.1961 42.3132 16.7115C42.3965 17.0031 42.2713 17.1877 42.3132 17.488C42.393 18.0598 42.593 18.3551 42.8956 18.8468C43.1499 19.2603 43.4846 19.3697 43.672 19.8174C43.9355 20.4468 43.6445 20.8828 43.672 21.5645C43.7244 22.861 43.5654 23.6649 44.0603 24.8645C44.2934 25.4295 44.8367 26.2233 44.8367 26.2233L45.4191 25.641C45.4191 25.641 45.501 23.5089 45.4191 22.1468C45.3412 20.8516 45.2193 20.1307 45.0309 18.8468C44.8408 17.5521 44.7584 16.8183 44.4485 15.5468C44.0511 13.9165 43.9591 12.9057 43.0897 11.4704C42.2838 10.1399 41.6203 9.48664 40.372 8.5586C39.3378 7.7897 38.6772 7.42973 37.4603 7.00566C35.9417 6.47649 34.9915 6.38592 33.3838 6.42331C32.0008 6.45547 31.2161 6.61298 29.8897 7.00566C28.199 7.50618 27.2977 7.9953 25.8132 8.94684C24.4077 9.84779 23.5143 10.3284 22.5132 11.6645C21.6591 12.8043 21.3339 13.5901 20.9603 14.9645C20.4826 16.7217 20.572 17.6821 20.7661 19.6233C20.9323 21.2845 20.7506 22.2376 20.9603 23.8939C21.1152 25.1182 21.5426 27.1939 21.5426 27.1939L22.5132 27.7763C22.5132 27.7763 22.3551 26.2834 22.3191 25.4468C22.2864 24.6895 22.3191 23.5057 22.3191 23.5057C22.3191 23.5057 22.0573 21.8591 22.5132 20.9821C22.6393 20.7396 22.7627 20.6353 22.9014 20.3998C23.0736 20.1077 23.1612 19.937 23.2897 19.6233C23.7244 18.5617 23.33 17.8047 23.6779 16.7115C23.9864 15.7424 24.1585 15.1347 24.8426 14.3821C25.5075 13.6508 26.0402 13.3359 26.9779 13.0233C28.2005 12.6158 28.9892 13.0233 30.2779 13.0233Z" fill="#1F140A"/>
<path fill-rule="evenodd" clip-rule="evenodd" d="M40.7603 34.1821C40.7603 34.1821 40.2892 33.2426 39.7897 32.8233C39.3177 32.4272 38.8977 32.3212 38.3841 32.1915C38.2171 32.1494 38.0402 32.1047 37.8485 32.0468C37.1794 31.8448 36.7914 31.7703 36.1014 31.6586C35.2749 31.5248 34.8029 31.4964 33.9662 31.4645C33.8103 31.4586 33.6716 31.4498 33.5414 31.4416C33.165 31.4178 32.8589 31.3985 32.4132 31.4645C31.7018 31.5699 30.8603 31.8851 30.472 32.0468C29.8461 32.3076 29.1132 32.6292 29.1132 32.6292C29.1132 32.6292 28.2675 33.2951 27.9485 33.7939C27.6902 34.1978 27.5603 34.9586 27.5603 34.9586C27.5603 34.9586 26.7142 34.7745 26.2014 34.5704C26.1759 34.5602 26.1507 34.5502 26.1258 34.5403C25.3479 34.231 24.8455 34.0312 24.2603 33.4057C23.7626 32.8737 23.5962 32.4459 23.3449 31.8003C23.327 31.7542 23.3086 31.707 23.2897 31.6586C23.0886 31.1447 22.9014 30.2998 22.9014 30.2998C22.9014 30.2998 22.6704 32.4491 22.9014 33.7939C23.0339 34.5646 23.2165 35.0578 23.4453 35.6758C23.5182 35.8727 23.5958 36.0822 23.6779 36.3174C23.7676 36.5742 23.8451 36.8079 23.918 37.0279C24.1736 37.7986 24.3731 38.4002 24.8426 39.2292C25.317 40.0667 25.6853 40.5098 26.2677 41.2105C26.3092 41.2604 26.3518 41.3117 26.3956 41.3645C26.5703 41.5751 26.7291 41.7732 26.8797 41.9611C27.5552 42.8039 28.0663 43.4416 29.1132 44.0821C29.9538 44.5965 30.4948 44.7827 31.4426 45.0527C32.8355 45.4496 33.6867 45.5508 35.1309 45.441C36.2131 45.3586 36.8463 45.2754 37.8485 44.8586C39.1505 44.3172 39.7748 43.7319 40.7603 42.7233C41.7889 41.6705 42.2344 40.9325 42.8956 39.6174C43.5095 38.3964 43.7529 37.6491 44.0603 36.3174C44.2969 35.2923 44.3477 34.6601 44.4263 33.6804C44.4334 33.5918 44.4408 33.5004 44.4485 33.4057C44.5963 31.5923 44.4485 28.7468 44.4485 28.7468L43.672 31.0763C43.672 31.0763 43.3312 32.3269 42.8956 33.0174C42.8511 33.088 42.8097 33.1553 42.77 33.2198C42.5279 33.6133 42.35 33.9026 41.925 34.1821C41.5839 34.4065 40.9544 34.5704 40.9544 34.5704L40.7603 34.1821ZM38.3972 34.2142C38.2001 33.8914 38.0364 33.623 37.6544 33.4057C36.9296 32.9933 35.5191 33.4057 35.5191 33.4057H33.9662C33.9662 33.4057 32.5282 33.2244 31.6367 33.4057C31.6064 33.4118 31.5765 33.4179 31.547 33.4239C30.7974 33.5757 30.2972 33.6771 29.6956 34.1821C29.1961 34.6014 28.8883 34.9096 28.725 35.541C28.6111 35.9813 28.6277 36.2613 28.725 36.7057C28.878 37.4043 29.121 37.8327 29.6956 38.2586C29.9679 38.4605 30.148 38.5471 30.472 38.6468C30.5659 38.6757 30.6645 38.7101 30.7648 38.7451C31.2836 38.9262 31.8465 39.1227 32.025 38.6468C32.025 38.6468 31.9773 37.8986 32.025 37.6763C32.0944 37.3525 32.2323 37.308 32.4481 37.2384C32.5487 37.2059 32.6661 37.168 32.8014 37.0939C33.1183 36.9203 33.3935 37.0224 33.6925 37.1334C33.8954 37.2087 34.1092 37.288 34.3544 37.288C34.5442 37.288 34.7076 37.2188 34.8631 37.1529C35.0802 37.0609 35.282 36.9754 35.5191 37.0939C35.5946 37.1317 35.692 37.1682 35.7959 37.2073C36.088 37.3169 36.4321 37.4461 36.4897 37.6763C36.6398 38.2767 36.6424 38.2765 36.8397 38.2612C36.8975 38.2567 36.9721 38.2509 37.072 38.2586C37.4652 38.2889 37.7001 38.0998 37.9788 37.8755C38.0594 37.8105 38.1438 37.7426 38.2367 37.6763C38.3115 37.6228 38.3836 37.574 38.4528 37.5271C38.787 37.3007 39.0514 37.1215 39.2073 36.7057C39.367 36.2798 39.3305 35.9788 39.2073 35.541C39.1188 35.226 38.9803 35.0446 38.8122 34.8243C38.7531 34.7469 38.6904 34.6648 38.625 34.5704C38.538 34.445 38.4656 34.3263 38.3972 34.2142Z" fill="#1F140A"/>
<path d="M23.291 47.7703C23.4451 46.9369 24.2616 45.8292 24.2616 45.8292C24.2616 45.8292 21.2711 47.1836 19.4086 48.1586C16.7594 49.5455 15.3167 50.4126 12.8086 52.0409C9.98509 53.874 8.5481 55.1151 5.8204 57.088C3.62108 58.6787 1.92824 59.0789 0.190987 61.1645C-0.832539 62.3932 -1.2404 63.2227 -1.94431 64.6586C-2.58876 65.9732 -3.30313 68.1527 -3.30313 68.1527L73.1792 69.1233C73.1792 69.1233 73.3189 66.8686 73.1792 65.435C72.967 63.2574 72.7148 61.9965 71.8204 59.9997C71.3207 58.8842 70.9568 58.2916 70.2675 57.2821C69.1172 55.5976 68.3186 54.7312 66.7733 53.3997C63.5882 50.6554 60.9419 50.3738 57.0675 48.7409C51.9641 46.5901 43.6733 44.4703 43.6733 44.4703V45.8292C43.6733 45.8292 44.3132 45.9204 44.6439 46.4115C45.3281 47.4273 45.6416 48.11 45.8086 49.3233C46.0296 50.9287 45.847 51.9989 45.0322 53.3997C43.803 55.513 41.9656 55.9008 39.5969 56.5056C37.3933 57.0682 36.0133 56.8991 33.7733 56.5056C31.7191 56.1448 30.5464 55.7771 28.7263 54.7586C27.0319 53.8104 24.8439 51.6527 24.8439 51.6527C24.8439 51.6527 22.9941 49.3761 23.291 47.7703Z" fill="#45537A"/>
</g>
</svg>
