<svg width="66" height="67" viewBox="0 0 66 67" fill="none" xmlns="http://www.w3.org/2000/svg">
<mask id="mask0_38_940" style="mask-type:alpha" maskUnits="userSpaceOnUse" x="0" y="0" width="66" height="67">
<circle cx="33" cy="33" r="33" transform="matrix(-1 0 0 1 66 0.793945)" fill="#78AEB1"/>
</mask>
<g mask="url(#mask0_38_940)">
<circle cx="33" cy="33" r="33" transform="matrix(-1 0 0 1 65.9999 0.793945)" fill="#F8BF02"/>
<path fill-rule="evenodd" clip-rule="evenodd" d="M45.0365 24.8646C45.0365 25.5229 45.0012 26.1709 44.9328 26.8058C44.9328 26.8058 45.36 26.073 45.813 25.8352C45.8576 25.8118 45.8987 25.7877 45.9381 25.7646L45.9381 25.7646C46.0862 25.6778 46.2093 25.6057 46.3953 25.6411C46.7028 25.6995 46.6624 26.0036 46.6183 26.3365L46.6183 26.3365C46.5973 26.4942 46.5756 26.6582 46.5895 26.8058C46.5895 26.8058 46.5847 28.4764 46.3953 29.5234C46.2415 30.374 46.1311 30.855 45.813 31.6587C45.5634 32.2892 45.0365 33.2116 45.0365 33.2116L44.9099 33.2095C44.5303 36.4071 43.3105 39.2607 41.5412 41.4057V46.2174L42.7059 48.1585L40.1824 56.8938H26.0118L24.1516 46.2174V39.2291C23.1254 37.3654 22.4414 35.1827 22.2133 32.8237L22.1968 32.8234C22.1968 32.8234 21.7777 32.9308 21.5483 32.8234C21.3222 32.7176 21.2969 32.5142 21.269 32.2891C21.2512 32.146 21.2323 31.9941 21.16 31.8528C21.0169 31.5729 20.8498 31.3847 20.6844 31.1985C20.5067 30.9984 20.331 30.8007 20.1895 30.494C19.8816 29.8271 19.8589 29.3284 19.8297 28.6882C19.8223 28.5247 19.8144 28.3518 19.8012 28.1646C19.7943 28.0658 19.7871 27.973 19.7803 27.8846C19.7403 27.3641 19.7118 26.9938 19.8012 26.4175C19.8258 26.2591 19.825 26.0937 19.8242 25.9341C19.8223 25.5445 19.8206 25.19 20.1895 25.0587C20.3812 24.9905 20.5165 25.0142 20.7036 25.0469C20.7255 25.0508 20.7482 25.0547 20.7718 25.0587C21.5301 25.1862 22.1968 26.4175 22.1968 26.4175C22.1531 25.9074 22.1306 25.3893 22.1306 24.8646C22.1306 16.9312 27.2583 10.4999 33.5836 10.4999C39.9089 10.4999 45.0365 16.9312 45.0365 24.8646Z" fill="#EACBAF"/>
<path d="M39.0167 13.6057C37.1128 12.8543 35.7643 14.0895 33.7755 13.6057C32.5855 13.3162 32.0871 12.4982 30.8637 12.441C29.1024 12.3586 28.1474 13.2601 26.7872 14.3822C25.7914 15.2037 25.0956 15.6934 24.652 16.9057C24.2091 18.116 25.0948 18.9955 24.652 20.2057C24.2083 21.418 22.9171 21.502 22.5167 22.7292C22.1875 23.7382 22.5167 25.4469 22.5167 25.4469V28.941C22.5167 28.941 21.2958 26.5147 20.7696 24.8645C20.205 23.0939 19.955 22.0576 19.799 20.2057C19.6908 18.9215 19.466 18.1507 19.799 16.9057C20.1957 15.4229 20.7102 14.5319 21.9343 13.6057C23.0813 12.7379 23.9954 12.5648 25.4284 12.441H26.7872L26.2049 11.8587C26.2049 11.8587 25.963 10.5214 26.2049 9.72336C26.6251 8.33734 28.9225 7.19983 28.9225 7.19983C28.9225 7.19983 31.8266 6.01674 33.7755 6.03512C35.6508 6.05282 38.4343 7.19983 38.4343 7.19983C38.4343 7.19983 41.7221 9.19564 43.4814 10.8881C45.0343 12.382 46.1598 13.1641 46.9755 15.1587C47.7265 16.9951 47.6515 18.2239 47.5578 20.2057C47.4588 22.3001 46.5872 25.8351 46.5872 25.8351C46.5872 25.8351 46.199 25.2528 45.6167 26.0292C45.0343 26.8057 44.6461 29.5234 44.6461 29.5234V26.8057C44.6461 26.8057 44.9595 24.7557 44.6461 23.5057C44.2824 22.0554 43.0685 21.656 42.7049 20.2057C42.3915 18.9557 43.1241 18.1244 42.7049 16.9057C42.0762 15.0781 40.8144 14.3152 39.0167 13.6057Z" fill="black"/>
<path d="M29.6998 52.6233C30.5374 53.1482 31.1163 53.3038 31.8351 53.9821C32.7528 54.848 33.5822 56.6998 33.5822 56.6998C33.5822 56.6998 34.4796 55.4746 35.1351 54.7586C36.7022 53.0471 38.4298 52.9475 39.794 51.0704C40.7309 49.7811 41.1528 47.3821 41.1528 47.3821L41.541 43.3057H41.7351L42.7057 45.6351L60.3704 54.7586C60.3704 54.7586 62.1981 55.1877 63.0881 55.9233C63.6268 56.3686 64.2528 57.2821 64.2528 57.2821L68.9116 67.1821H-2.52368C-2.52368 67.1821 -1.84394 64.9244 -1.35898 63.4939C-0.472996 60.8806 -0.612703 59.0048 1.16455 56.8939C2.38518 55.4441 3.45793 55.0151 5.04691 53.9821C8.14569 51.9678 13.5881 49.9057 13.5881 49.9057L22.3234 45.441L24.0704 43.3057C24.0704 43.3057 24.054 44.668 24.0704 45.441C24.0944 46.5677 24.1667 46.9477 24.6528 47.9645C25.1519 49.0085 25.4182 49.6402 26.2057 50.488C27.2941 51.6597 28.3448 51.7741 29.6998 52.6233Z" fill="#12373F"/>
</g>
</svg>
