<svg width="66" height="67" viewBox="0 0 66 67" fill="none" xmlns="http://www.w3.org/2000/svg">
<circle cx="33" cy="33.7939" r="33" fill="#F8BF02"/>
<mask id="mask0_38_987" style="mask-type:alpha" maskUnits="userSpaceOnUse" x="0" y="0" width="66" height="67">
<circle cx="33" cy="33.7939" r="33" fill="#FED18F"/>
</mask>
<g mask="url(#mask0_38_987)">
<ellipse cx="30.868" cy="31.4648" rx="13.0059" ry="24.4588" transform="rotate(-5.712 30.868 31.4648)" fill="#56402E"/>
<path d="M42.7082 22.3413C42.7082 23.9656 42.4635 25.5309 42.1259 27.0001C41.5906 29.3295 41.0459 29.982 40.3788 31.2707C39.2871 32.9083 39.0481 33.5884 37.2638 35.0444C37.1445 35.1417 37.0184 35.2424 36.8847 35.3472C35.2794 36.6044 33.619 37.6766 31.6435 37.6766C29.6681 37.6766 28.0077 36.6044 26.4024 35.3472C26.3208 35.2833 26.2409 35.2186 26.1623 35.153C25.0952 34.2618 24.2951 33.2054 23.4906 31.853C22.6978 30.5204 21.5952 29.0425 21.1612 27.3883C21.093 27.1283 21.0317 26.87 20.9769 26.6119C20.6873 25.2467 20.5788 23.8894 20.5788 22.3413C20.5788 21.9494 20.5894 21.561 20.6103 21.1766C21.0397 13.2512 25.8154 7.00598 31.6435 7.00598C37.7544 7.00598 42.7082 13.8718 42.7082 22.3413Z" fill="#DCB9A5"/>
<path d="M31.6435 37.6766C29.6681 37.6766 28.0077 36.6044 26.4024 35.3472C26.3208 35.2833 26.2409 35.2186 26.1623 35.153C26.1623 35.153 27.5077 39.5546 26.1623 41.753C25.8035 42.3393 25.0435 43.1119 25.0435 43.1119L21.1612 43.5001L13.0082 44.8589L18.0553 55.7295L27.5671 64.0766L34.1671 66.6001L39.02 61.1648L46.7847 48.7413L47.1729 43.6942L43.0965 43.5001L39.4082 43.1119C39.4082 43.1119 38.1732 42.4494 37.6612 41.753C36.7975 40.5782 37.0788 38.0648 37.0788 38.0648L37.2638 35.0444C37.1445 35.1417 37.0184 35.2424 36.8847 35.3472C35.2794 36.6044 33.619 37.6766 31.6435 37.6766Z" fill="#DCB9A5"/>
<path d="M20.5788 22.3413C20.5788 21.9494 20.5894 21.561 20.6103 21.1766C20.6103 21.1766 20.1524 20.7828 19.8024 20.7883C19.4634 20.7937 19.22 20.8673 19.0259 21.1766C18.8318 21.4858 18.7675 22.0032 18.8318 22.5354C18.9254 23.3102 19.4662 23.5781 19.8024 24.2825C20.154 25.0193 20.0457 25.6052 20.5788 26.2236C20.7206 26.3881 20.9769 26.6119 20.9769 26.6119C20.6873 25.2467 20.5788 23.8894 20.5788 22.3413Z" fill="#DCB9A5"/>
<path d="M28.5377 9.7236C28.5377 9.09848 28.1494 8.17066 28.1494 8.17066L29.7024 9.52949C29.7024 9.52949 30.3747 9.98477 30.8671 10.1118C31.4543 10.2634 32.42 10.1118 32.42 10.1118C32.42 10.1118 33.3536 9.63914 33.973 9.7236C34.3774 9.77876 34.9435 9.91772 34.9435 9.91772C34.9435 9.91772 35.8499 10.3123 36.3024 10.6942C36.8364 11.145 36.7928 12.3216 37.273 12.8295C37.7937 13.3804 38.3801 13.3811 38.8259 13.9942C39.3701 14.7426 38.9901 15.1099 39.4082 15.9354C39.8415 16.7908 40.4173 16.9304 40.573 17.8765C40.733 18.849 40.5344 19.6366 40.7671 20.5942C40.9434 21.3197 41.2742 21.6449 41.5435 22.3413C41.803 23.012 41.9886 23.3824 42.1259 24.0883C42.3285 25.1301 41.6364 25.7487 41.5435 26.806C41.3065 29.5046 39.9906 33.406 39.9906 33.406L42.9024 43.5001L47.173 43.6942C47.173 43.6942 49.0871 43.7031 50.0847 43.1118C50.4108 42.9186 50.5932 42.7975 50.8612 42.5295C51.1292 42.2615 51.2965 42.1023 51.4435 41.753C51.6789 41.1941 51.4435 40.8065 51.4435 40.2001C51.4435 39.6694 51.5288 39.365 51.4435 38.8412C51.3395 38.202 50.9565 37.929 50.8612 37.2883C50.7943 36.8384 50.8612 36.5784 50.8612 36.1236V34.7648C50.8612 34.7648 50.9878 33.9213 50.8612 33.406C50.7154 32.8124 50.0847 32.0471 50.0847 32.0471C50.0847 32.0471 48.9004 31.3507 48.5318 30.6883C48.1003 29.913 48.1435 28.3589 48.1435 28.3589L47.3671 26.4177V23.7001C47.3671 23.7001 46.8687 22.3526 46.7847 21.3707C46.7061 20.4518 47.0114 19.7411 46.7847 18.8471C46.3591 17.1682 45.0377 15.1589 45.0377 15.1589C45.0377 15.1589 44.6228 12.5679 43.873 11.2765C43.218 10.1487 41.1553 8.75302 41.1553 8.75302C41.1553 8.75302 39.9592 6.35058 38.6318 5.2589C37.6573 4.45749 37.0472 4.06678 35.9141 3.51184C35.1809 3.15272 34.7788 2.86693 33.973 2.73537C33.3744 2.63765 33.012 2.60381 32.42 2.73537C31.7581 2.88246 30.8671 3.51184 30.8671 3.51184C30.8671 3.51184 30.6597 3.23872 30.4788 3.1236C30.0311 2.83871 29.6494 3.08691 29.12 3.1236C28.2745 3.18221 27.7898 3.24676 26.9847 3.51184C25.427 4.02476 24.7239 4.76034 23.4906 5.84125C22.0745 7.08236 21.8363 7.97543 20.773 9.52949C19.7002 11.0973 18.7141 12.0182 18.0553 13.8001C17.4622 15.4042 17.7393 16.7695 17.473 18.4589C17.2122 20.1131 16.7785 20.6686 16.6965 22.3413C16.5999 24.3099 17.3317 25.6165 17.473 27.5824C17.6213 29.6462 17.1944 30.5792 17.473 32.6295C17.7198 34.4463 18.6475 35.4548 18.6377 37.2883C18.6283 39.0466 18.2918 40.197 17.473 41.753C16.774 43.0812 14.7553 44.4707 14.7553 44.4707L24.8494 43.1118L25.2377 35.7354L18.0553 22.3413L19.0259 19.6236C19.0259 19.6236 19.7717 20.1758 20.1906 20.5942C20.9202 21.3228 21.7435 22.7295 21.7435 22.7295V19.2354C21.7435 18.5531 21.564 18.1465 21.7435 17.4883C21.9593 16.6972 22.3257 16.3183 22.9083 15.7413C23.3716 15.2823 24.2671 14.7707 24.2671 14.7707C24.2671 14.7707 25.5338 13.052 26.4024 12.2471C27.0315 11.6642 27.7596 12.0405 28.1494 11.2765C28.4335 10.7197 28.5377 10.3487 28.5377 9.7236Z" fill="#56402E"/>
<path d="M49.3083 42.9176C47.0147 42.8577 43.6788 43.5 43.6788 43.5C43.6788 43.5 43.4252 45.5333 43.0965 46.8C42.1253 50.5422 40.4852 52.2558 38.4377 55.5353C36.1973 59.1236 32.0318 64.2706 32.0318 64.2706C32.0318 64.2706 27.5068 59.2134 25.2377 55.5353C23.3686 52.5057 22.363 50.7331 21.1612 47.3824C20.6268 45.8924 19.9965 43.5 19.9965 43.5C19.9965 43.5 17.7333 43.7733 16.3083 44.0824C14.7325 44.4241 13.8826 44.6378 12.3562 45.0217L12.2318 45.053C11.2509 45.2996 10.7949 45.5477 9.90238 46.0235C9.09685 46.453 8.59299 46.7235 7.9612 47.3824C7.10067 48.2798 6.60794 48.8103 6.02002 49.9059C5.13325 51.5584 5.21199 52.7236 4.85532 54.5647C4.36174 57.1126 4.24061 58.5745 4.07885 61.1647C3.89457 64.1155 4.07885 68.7353 4.07885 68.7353H13.5906L12.2318 59.2235L13.9788 68.7353H54.3553L54.9377 59.8059L54.7435 68.7353H64.8377V64.2706C64.8377 64.2706 64.5159 60.2257 64.0612 57.6706C63.652 55.3714 63.4568 54.0571 62.7024 51.8471C62.0881 50.0478 61.9111 48.8964 60.7612 47.3824C59.7864 46.0989 59.0593 45.4561 57.6553 44.6647C56.4648 43.9937 55.6745 43.8569 54.3553 43.5C52.5117 43.0013 51.2394 42.968 49.3365 42.9184L49.3083 42.9176Z" fill="#191E2E"/>
</g>
</svg>
