<svg width="66" height="67" viewBox="0 0 66 67" fill="none" xmlns="http://www.w3.org/2000/svg">
<circle cx="33" cy="33.7939" r="33" fill="#F8BF02"/>
<mask id="mask0_38_861" style="mask-type:alpha" maskUnits="userSpaceOnUse" x="0" y="0" width="66" height="67">
<circle cx="33" cy="33.7939" r="33" fill="#6E8F7B"/>
</mask>
<g mask="url(#mask0_38_861)">
<ellipse cx="32.8026" cy="31.2704" rx="16.5" ry="14.9471" fill="#472E1A"/>
<path d="M41.9262 24.6704C41.9262 29.1657 40.2625 33.1119 37.7577 35.3469C36.3797 36.5764 34.747 37.288 32.9967 37.288C29.7774 37.288 26.956 34.8806 25.3849 31.2704C25.0419 30.4823 24.7586 29.637 24.5436 28.7469C24.2349 27.4681 24.0673 26.0969 24.0673 24.6704C24.0673 24.0776 24.0963 23.4944 24.1522 22.9233C24.7543 16.7816 28.4847 12.0527 32.9967 12.0527C37.9283 12.0527 41.9262 17.7018 41.9262 24.6704Z" fill="#6F391D"/>
<path d="M24.0673 24.6704C24.0673 24.0776 24.0963 23.4944 24.1522 22.9233C24.1522 22.9233 23.8001 22.0051 23.2909 21.7586C22.8132 21.5274 22.4334 21.5846 21.932 21.7586C20.9371 22.104 20.4609 23.0717 20.185 24.088C19.9069 25.1123 20.2242 25.8034 20.5732 26.8057C20.8084 27.4811 21.0895 27.8063 21.5438 28.3586C21.8843 28.7726 22.0383 29.0829 22.5144 29.3292C23.0573 29.61 23.5688 29.8768 24.0673 29.5233C24.3575 29.3176 24.5436 28.7469 24.5436 28.7469C24.2349 27.4681 24.0673 26.0969 24.0673 24.6704Z" fill="#6F391D"/>
<path d="M32.9967 37.288C29.7774 37.288 26.956 34.8806 25.3849 31.2704C25.3849 31.2704 26.2694 34.4308 26.3967 36.5116C26.457 37.4952 26.3967 39.0351 26.3967 39.0351L25.3849 43.4998L41.3438 43.888C41.3438 43.888 39.472 43.0963 38.432 42.3351C37.8681 41.9223 37.0732 41.1704 37.0732 41.1704C37.0732 41.1704 36.8791 39.7538 36.8791 38.841C36.8791 37.9281 37.0732 36.5116 37.0732 36.5116L37.7577 35.3469C36.3797 36.5764 34.747 37.288 32.9967 37.288Z" fill="#6F391D"/>
<path d="M36.2953 14.5762C35.1548 13.9435 33.5777 12.635 33.5777 12.635C33.5777 12.635 32.9808 13.4379 32.413 13.6056C31.562 13.857 30.2777 12.8291 30.2777 12.8291C30.2777 12.8291 29.8633 13.9232 29.5012 14.5762C28.8467 15.7566 28.39 16.4147 27.3659 17.2938C26.6159 17.9377 25.7103 17.7885 25.2306 18.6527C24.8242 19.3848 25.2134 19.9695 25.0365 20.788C24.8134 21.82 24.0659 23.3115 24.0659 23.3115C24.0659 23.3115 24.0819 21.5219 23.2894 20.9821C22.4725 20.4256 20.7659 21.1762 20.7659 21.1762C20.7659 21.1762 17.2444 25.0854 18.2424 27.5821C19.2368 30.0698 23.8718 30.2997 24.4541 30.4938C25.0365 30.688 26.2012 38.0644 26.2012 38.0644C26.2012 38.0644 26.2668 41.7429 24.8424 43.3056C24.1059 44.1136 23.5764 44.6048 22.513 44.8586C21.0642 45.2042 19.6671 45.1163 18.8247 43.888C18.0959 42.8251 19.783 41.4496 18.8247 40.588C18.0335 39.8765 17.0174 40.9447 16.1071 40.3938C14.5383 39.4447 17.0834 36.7006 15.5247 35.735C15.1777 35.52 14.9007 35.5626 14.5541 35.3468C13.1649 34.4818 14.4154 32.6796 13.5835 31.2703C13.0107 30.2998 11.955 30.2178 11.6424 29.135C11.1337 27.3734 13.905 26.8909 13.9718 25.0586C14.0026 24.2116 13.4175 23.7544 13.5835 22.9233C13.7648 22.0158 14.7408 21.8852 14.9424 20.9821C15.1083 20.2385 14.6038 19.7889 14.7483 19.0409C15.0992 17.2238 18.1802 18.1183 18.6306 16.3233C18.8528 15.4379 18.1156 14.8484 18.4365 13.9938C18.9027 12.7524 20.5231 13.2849 21.3483 12.2468C21.9182 11.5297 21.6133 10.6957 22.3188 10.1115C22.9846 9.56025 23.707 9.96375 24.4541 9.52914C25.1955 9.09789 25.2446 8.36897 26.0071 7.9762C27.1527 7.38602 28.4366 8.92652 29.3071 7.9762C29.697 7.55047 29.4339 6.97202 29.8894 6.61738C30.3717 6.24194 30.9158 6.73347 31.4424 6.42326C32.1148 6.02711 31.7413 5.07366 32.413 4.6762C33.467 4.05253 35.3247 5.84091 35.3247 5.84091C35.3247 5.84091 36.2196 4.61529 37.0718 4.28796C38.2129 3.84965 39.019 4.28683 40.1777 4.6762C41.5335 5.13181 42.0015 5.9831 43.2835 6.61738C44.6594 7.29806 46.0291 6.7648 46.9718 7.9762C47.8214 9.06794 47.0321 10.1893 47.5541 11.4703C48.3643 13.4584 50.6883 13.4727 51.2424 15.5468C51.5554 16.7186 50.9356 17.4792 51.2424 18.6527C51.6042 20.0365 52.8929 20.3581 53.1835 21.7586C53.4798 23.1863 52.3368 24.0128 52.6012 25.4468C52.798 26.5142 53.7096 26.8864 53.7659 27.9703C53.8294 29.1934 52.5403 29.6589 52.6012 30.8821C52.6724 32.3106 54.7365 32.5709 54.5424 33.988C54.3817 35.1612 53.4222 35.464 52.6012 36.3174C51.558 37.4018 50.393 37.5108 49.6894 38.8409C49.1124 39.9317 49.6737 40.8505 49.1071 41.9468C48.2087 43.6847 46.9734 44.6283 45.0306 44.8586C43.5516 45.0338 41.3424 43.888 41.3424 43.888L38.4306 37.8703L41.3424 33.0174C41.3424 33.0174 41.7862 29.9464 41.7306 27.9703C41.6899 26.5226 41.4116 25.7287 41.3424 24.2821C41.2844 23.0705 41.7062 22.3333 41.3424 21.1762C40.9829 20.0328 40.1562 19.712 39.5953 18.6527C38.9891 17.5079 39.3799 16.4282 38.4306 15.5468C37.7594 14.9235 37.0963 15.0205 36.2953 14.5762Z" fill="#472E1A"/>
<path d="M32.0262 43.6939C29.4883 43.5378 25.6203 42.5292 25.6203 42.5292C25.6203 42.5292 23.5285 44.2642 21.932 44.8586C20.0727 45.551 18.7547 44.777 16.885 45.441C15.0221 46.1025 13.8848 46.6441 12.6144 48.1586C11.0275 50.0505 10.6732 54.1763 10.6732 54.1763L12.6144 70.2881L58.4262 69.7057V55.341C58.4262 55.341 58.8666 48.9928 56.2909 46.6057C53.9026 44.3923 48.7203 44.8586 48.1379 44.8586C47.5556 44.8586 44.8787 45.0036 42.8967 44.4704C41.5509 44.1084 39.5967 43.1116 39.5967 43.1116C39.5967 43.1116 34.9858 43.876 32.0262 43.6939Z" fill="#A2B3BF"/>
</g>
</svg>
