<svg width="66" height="67" viewBox="0 0 66 67" fill="none" xmlns="http://www.w3.org/2000/svg">
<circle cx="33" cy="33.7939" r="33" fill="#F8BF02"/>
<mask id="mask0_38_924" style="mask-type:alpha" maskUnits="userSpaceOnUse" x="0" y="0" width="66" height="67">
<circle cx="33" cy="33.7939" r="33" fill="#D9D9D9"/>
</mask>
<g mask="url(#mask0_38_924)">
<path d="M27.9649 35.682L21.5591 22.482L20.1897 21.9527L18.6368 22.7291C18.6368 22.7291 18.2306 27.3226 18.4426 31.4114C18.5372 33.2346 18.4532 31.9937 18.6473 35.682C18.6918 36.5284 18.7198 37.9833 18.4532 38.7878C18.036 40.0466 17.384 40.5599 16.7061 41.6996C14.3798 45.6111 10.8826 51.7937 10.8826 51.7937C10.8826 51.7937 8.89827 55.2171 8.16494 57.6173C7.7565 58.9541 7.472 59.7161 7.38847 61.1114C7.30193 62.5571 7.77671 64.7996 7.77671 64.7996L8.25318 67.5173H15.3473L15.1532 55.0937L17.4826 49.6584L31.0708 44.8055V38.0114L27.9649 35.682Z" fill="black"/>
<path d="M43.8826 21.7055L47.5603 21.2698C47.5603 21.2698 47.3398 24.1619 47.1826 25.9761C47.0308 27.7279 46.6966 28.6851 46.6002 30.4408C46.5296 31.7276 46.4666 32.459 46.6002 33.7408C46.7205 34.8942 47.1826 36.6526 47.1826 36.6526C47.1826 36.6526 47.6586 38.5878 48.1532 39.7584C49.1105 42.0245 50.307 42.9369 51.6473 44.9996C52.7244 46.6572 53.5137 47.5924 54.5591 49.2702C55.171 50.2523 55.1414 50.2408 56.112 51.5996C56.6693 52.3799 57.0826 53.5408 57.0826 53.5408C57.0826 53.5408 57.2767 54.5298 57.2767 55.2878V55.2879C57.2767 56.0459 57.2767 56.6467 56.6944 58.9761C56.112 61.3055 56.0224 61.1961 55.9179 62.6643C55.8208 64.0275 55.861 64.815 56.112 66.1584C56.2707 67.0081 56.6944 68.2937 56.6944 68.2937H52.0355L52.4238 56.6467L48.7355 51.2114L40.7767 46.5526L36.8944 43.2526V37.6231L41.5532 29.8584L43.8826 21.7055Z" fill="black"/>
<path d="M44.0664 23.2583C43.9221 25.0621 43.6706 26.8391 43.2619 28.4995C42.571 31.3064 41.4312 33.7802 39.6017 35.4878C38.9771 36.0707 38.4126 36.6187 37.8547 37.1106C36.5549 38.2566 35.2915 39.0985 33.39 39.3701C32.4865 39.1292 31.6537 38.8135 30.8664 38.4288C29.1166 37.5738 27.5914 36.3781 26.0135 34.9054C24.4732 33.4678 23.4762 31.7043 22.7924 29.6149C22.1835 27.7545 21.8231 25.6356 21.5488 23.2583C21.5488 22.998 21.5532 22.7391 21.562 22.4819C21.8484 14.0514 26.7737 7.3407 32.8076 7.3407C38.7486 7.3407 43.6149 13.8463 44.0368 22.0936C44.0564 22.4782 44.0664 22.8666 44.0664 23.2583Z" fill="#DBAE7F"/>
<path d="M21.5488 23.2583C21.5488 22.998 21.5532 22.7391 21.562 22.4819C21.562 22.4819 20.9904 22.2638 20.7723 22.4819C19.9959 23.2583 20.0462 23.7329 19.9959 24.0348C19.9152 24.5185 19.8565 25.7769 19.9959 26.7525C20.1181 27.6081 20.3009 28.056 20.5782 28.8878C20.7723 29.4701 21.3547 29.8583 21.3547 29.8583C21.3547 29.8583 21.937 30.2466 22.5194 30.0525C22.7105 29.9888 22.7924 29.6149 22.7924 29.6149C22.1835 27.7545 21.8231 25.6356 21.5488 23.2583Z" fill="#DBAE7F"/>
<path d="M44.0368 22.0936C44.0564 22.4782 44.0664 22.8666 44.0664 23.2583C43.9221 25.0621 43.6706 26.8391 43.2619 28.4995C43.2619 28.4995 43.6905 28.8435 44.0664 28.8878C44.5154 28.9406 45.2312 28.4995 45.2312 28.4995C45.2312 28.4995 46.284 27.6125 46.59 26.7525C46.9213 25.8212 46.6647 24.7248 46.3959 23.8407L46.3873 23.8124C46.055 22.7194 45.8052 21.8979 44.8429 21.7054C44.5003 21.6369 44.0368 22.0936 44.0368 22.0936Z" fill="#DBAE7F"/>
<path d="M33.39 39.3701C32.4865 39.1292 31.6537 38.8135 30.8664 38.4288C30.8664 38.4288 31.4056 40.6526 30.8664 41.8936C30.6903 42.2991 30.536 42.501 30.2841 42.8642C28.6017 45.2906 26.79 45.776 23.6841 46.7466C20.8622 47.6284 18.7491 47.337 16.6959 49.4642C15.9798 50.2061 15.5968 50.6737 15.1429 51.5995C14.495 52.9212 14.4178 53.8167 14.3664 55.2878C14.3212 56.5846 14.7547 58.5878 14.7547 58.5878L15.1429 62.6642L15.5311 67.5172L52.4135 68.2936C52.4135 68.2936 53.2106 65.1268 53.3841 63.0525C53.5294 61.315 53.6049 60.3328 53.5782 58.5878C53.5584 57.297 53.3841 54.7584 53.3841 54.7584C53.3841 54.7584 53.2068 53.9096 52.9958 53.3996C52.7158 52.7224 52.4478 52.3239 52.0253 51.7936C51.4486 51.0699 50.0841 50.4348 50.0841 50.4348L44.4547 47.5231C44.4547 47.5231 40.7134 45.7981 38.8253 44.0289C38.5123 43.7357 38.4436 43.6315 38.2429 43.2525C38.0272 42.8449 37.9161 42.5448 37.8547 42.0878C37.5959 40.1614 37.8547 37.1106 37.8547 37.1106C36.5549 38.2566 35.2915 39.0985 33.39 39.3701Z" fill="#DBAE7F"/>
<path d="M39.6025 31.6585C39.6025 31.6585 39.2587 30.4097 38.826 29.7173C37.9663 28.3414 36.7871 28.2144 35.526 27.1938C34.5225 26.3817 33.831 26.0485 33.0025 25.0585C32.4763 24.4296 32.2663 24.0105 31.8378 23.3114C31.1643 22.2127 30.7128 21.6153 30.2848 20.3997C29.9244 19.3759 29.7025 17.682 29.7025 17.682V11.2761C29.7025 11.2761 29.8966 11.4703 29.7025 11.8585C29.5084 12.2467 29.5084 12.4408 29.1201 13.2173C28.659 14.1395 28.3494 14.6998 27.7613 15.5467C26.8859 16.8076 25.4319 18.6526 25.4319 18.6526L23.879 20.3997L21.6455 22.588C21.6455 22.588 21.2572 22.3939 21.0631 22.3939C20.869 22.3939 18.6378 22.7291 18.6378 22.7291C18.6378 22.7291 18.611 18.7878 18.8319 16.9055C19.0035 15.4437 19.6084 13.2173 19.6084 13.2173C19.6084 13.2173 20.4208 10.3982 21.5495 8.99976C22.3919 7.95614 23.0633 7.40256 24.2672 6.81142C25.4419 6.23463 26.7907 6.03495 27.5672 6.03495C28.3437 6.03495 30.6731 6.22907 30.6731 6.22907C30.6731 6.22907 31.4989 5.21773 32.226 4.87025C33.3888 4.31455 34.2509 4.248 35.526 4.43453C36.8012 4.62107 38.1016 5.0429 39.6025 5.79336C41.1554 6.56983 42.1021 7.71063 42.9025 8.511C43.4848 9.09335 45.2319 12.3934 45.2319 12.3934C45.2319 12.3934 46.2859 15.1009 46.7848 16.9055C47.2565 18.6113 47.5613 21.3228 47.5613 21.3228L44.1631 21.8115L43.8731 25.6408C43.8731 25.6408 43.4625 24.4295 43.0966 23.6997C42.6536 22.8161 42.3618 22.3309 41.7378 21.5644C40.9587 20.6073 39.4084 19.4291 39.4084 19.4291C39.4084 19.4291 37.7288 17.9794 36.4966 17.2938C35.6962 16.8484 34.3613 16.3232 34.3613 16.3232C34.3613 16.3232 33.6296 15.8804 33.1966 15.5467C32.1343 14.7281 30.8672 13.0232 30.8672 13.0232C30.8672 13.0232 30.7722 16.2367 31.0613 18.2644C31.1264 18.7209 31.0613 18.2644 31.2554 19.4291C31.3981 20.2854 31.4611 20.4925 31.8378 21.1761C32.2962 22.0081 32.8225 22.5502 33.3907 23.3114C33.9679 24.0846 35.1378 25.0585 35.1378 25.0585C35.1378 25.0585 36.2026 26.1233 36.8848 26.8055C37.4155 27.3362 38.2437 28.1644 38.2437 28.1644C38.2437 28.1644 38.9361 28.8064 39.2143 29.3291C39.6475 30.1432 39.6025 31.6585 39.6025 31.6585Z" fill="black"/>
<path d="M28.1485 50.8762C26.8593 49.2936 26.2073 46.0232 26.2073 46.0232L19.6073 47.5762C19.6073 47.5762 20.774 48.6787 21.3544 49.5173C22.2042 50.7452 22.6811 51.5786 23.1014 53.0115C23.533 54.4826 23.617 55.366 23.4897 56.8938C23.3781 58.2325 22.9328 58.9158 22.5191 60.1938C21.9725 61.8822 20.9662 64.4644 20.9662 64.4644L22.5191 66.9879L38.4367 68.9291L47.7544 63.4938C47.7544 63.4938 46.5895 61.5307 46.0073 60.1938C45.4617 58.9408 45.0853 58.2387 44.8426 56.8938C44.5734 55.4018 44.6149 54.5104 44.8426 53.0115C45.1199 51.1864 46.3956 48.5467 46.3956 48.5467L41.5426 45.8291C41.5426 45.8291 40.7662 49.1291 39.7956 50.8762C38.9881 52.3295 38.241 53.1898 36.6897 53.7879C35.2043 54.3606 33.9618 54.569 32.4191 54.1762C30.4223 53.6677 29.4823 52.5137 28.1883 50.925L28.1485 50.8762Z" fill="#785757"/>
</g>
</svg>
