<svg width="66" height="67" viewBox="0 0 66 67" fill="none" xmlns="http://www.w3.org/2000/svg">
<circle cx="33" cy="33.7939" r="33" fill="#F8BF02"/>
<mask id="mask0_38_908" style="mask-type:alpha" maskUnits="userSpaceOnUse" x="0" y="0" width="66" height="67">
<circle cx="33" cy="33.7939" r="33" fill="#6E8F7B"/>
</mask>
<g mask="url(#mask0_38_908)">
<ellipse cx="32.8027" cy="31.2703" rx="16.5" ry="14.9471" fill="#472E1A"/>
<path d="M41.9262 24.6704C41.9262 29.1657 40.2625 33.1119 37.7577 35.3469C36.3797 36.5764 34.747 37.288 32.9967 37.288C29.7774 37.288 26.956 34.8806 25.3849 31.2704C25.0419 30.4823 24.7586 29.637 24.5436 28.7469C24.2349 27.4681 24.0673 26.0969 24.0673 24.6704C24.0673 24.0776 24.0963 23.4944 24.1522 22.9233C24.7543 16.7816 28.4847 12.0527 32.9967 12.0527C37.9283 12.0527 41.9262 17.7018 41.9262 24.6704Z" fill="#6F391D"/>
<path d="M24.0673 24.6704C24.0673 24.0776 24.0963 23.4944 24.1522 22.9233C24.1522 22.9233 23.8001 22.0051 23.2909 21.7586C22.8132 21.5274 22.4334 21.5846 21.932 21.7586C20.9371 22.104 20.4609 23.0717 20.185 24.088C19.9069 25.1123 20.2242 25.8034 20.5732 26.8057C20.8084 27.4811 21.0895 27.8063 21.5438 28.3586C21.8843 28.7726 22.0383 29.0829 22.5144 29.3292C23.0573 29.61 23.5688 29.8768 24.0673 29.5233C24.3575 29.3176 24.5436 28.7469 24.5436 28.7469C24.2349 27.4681 24.0673 26.0969 24.0673 24.6704Z" fill="#6F391D"/>
<path d="M32.9967 37.288C29.7774 37.288 26.956 34.8806 25.3849 31.2704C25.3849 31.2704 26.2694 34.4308 26.3967 36.5116C26.457 37.4952 26.3967 39.0351 26.3967 39.0351L25.3849 43.4998L41.3438 43.888C41.3438 43.888 39.472 43.0963 38.432 42.3351C37.8681 41.9223 37.0732 41.1704 37.0732 41.1704C37.0732 41.1704 36.8791 39.7538 36.8791 38.841C36.8791 37.9281 37.0732 36.5116 37.0732 36.5116L37.7577 35.3469C36.3797 36.5764 34.747 37.288 32.9967 37.288Z" fill="#6F391D"/>
<path d="M36.2954 14.5761C35.1549 13.9435 33.5778 12.635 33.5778 12.635C33.5778 12.635 32.9809 13.4378 32.4131 13.6055C31.5621 13.8569 30.2778 12.8291 30.2778 12.8291C30.2778 12.8291 29.8634 13.9232 29.5013 14.5761C28.8468 15.7565 28.3901 16.4146 27.366 17.2938C26.6161 17.9376 25.7104 17.7884 25.2307 18.6526C24.8244 19.3847 25.2135 19.9695 25.0366 20.7879C24.8136 21.82 24.066 23.3114 24.066 23.3114C24.066 23.3114 24.0821 21.5218 23.2896 20.982C22.4726 20.4256 20.766 21.1761 20.766 21.1761C20.766 21.1761 17.2445 25.0853 18.2425 27.582C19.2369 30.0698 23.8719 30.2997 24.4543 30.4938C25.0366 30.6879 26.2013 38.0644 26.2013 38.0644C26.2013 38.0644 26.2669 41.7428 24.8425 43.3055C24.106 44.1136 23.5765 44.6048 22.5131 44.8585C21.0644 45.2041 19.6672 45.1162 18.8248 43.8879C18.096 42.8251 19.7832 41.4496 18.8248 40.5879C18.0336 39.8765 17.0175 40.9446 16.1072 40.3938C14.5385 39.4446 17.0835 36.7006 15.5248 35.735C15.1778 35.52 14.9008 35.5625 14.5543 35.3467C13.1651 34.4818 14.4155 32.6795 13.5837 31.2703C13.0108 30.2997 11.9551 30.2177 11.6425 29.135C11.1339 27.3734 13.9052 26.8908 13.9719 25.0585C14.0028 24.2115 13.4177 23.7543 13.5837 22.9232C13.7649 22.0158 14.7409 21.8851 14.9425 20.982C15.1085 20.2385 14.6039 19.7889 14.7484 19.0408C15.0993 17.2237 18.1803 18.1182 18.6307 16.3232C18.8529 15.4378 18.1157 14.8484 18.4366 13.9938C18.9028 12.7523 20.5232 13.2848 21.3484 12.2467C21.9183 11.5297 21.6134 10.6956 22.319 10.1114C22.9847 9.56019 23.7071 9.96368 24.4543 9.52908C25.1956 9.09783 25.2448 8.36891 26.0072 7.97614C27.1528 7.38596 28.4367 8.92646 29.3072 7.97614C29.6972 7.55041 29.434 6.97196 29.8895 6.61732C30.3718 6.24188 30.9159 6.73341 31.4425 6.4232C32.115 6.02705 31.7414 5.07359 32.4131 4.67614C33.4671 4.05247 35.3248 5.84084 35.3248 5.84084C35.3248 5.84084 36.2198 4.61523 37.0719 4.2879C38.213 3.84959 39.0191 4.28677 40.1778 4.67614C41.5336 5.13175 42.0017 5.98304 43.2837 6.61732C44.6595 7.29799 46.0292 6.76473 46.9719 7.97614C47.8215 9.06788 47.0322 10.1892 47.5543 11.4703C48.3645 13.4583 50.6884 13.4726 51.2425 15.5467C51.5555 16.7186 50.9357 17.4791 51.2425 18.6526C51.6043 20.0364 52.8931 20.358 53.1837 21.7585C53.4799 23.1863 52.3369 24.0127 52.6013 25.4467C52.7981 26.5141 53.7097 26.8863 53.766 27.9703C53.8296 29.1933 52.5404 29.6588 52.6013 30.882C52.6725 32.3106 54.7366 32.5708 54.5425 33.9879C54.3818 35.1611 53.4223 35.4639 52.6013 36.3173C51.5581 37.4017 50.3931 37.5107 49.6896 38.8408C49.1125 39.9317 49.6739 40.8505 49.1072 41.9467C48.2088 43.6846 46.9735 44.6283 45.0307 44.8585C43.5517 45.0338 41.3425 43.8879 41.3425 43.8879L38.4307 37.8703L41.3425 33.0173C41.3425 33.0173 41.7863 29.9463 41.7307 27.9703C41.69 26.5225 41.4117 25.7287 41.3425 24.282C41.2845 23.0705 41.7063 22.3332 41.3425 21.1761C40.983 20.0327 40.1563 19.7119 39.5954 18.6526C38.9892 17.5078 39.38 16.4282 38.4307 15.5467C37.7595 14.9234 37.0964 15.0205 36.2954 14.5761Z" fill="#472E1A"/>
<path d="M32.0262 43.6939C29.4883 43.5378 25.6203 42.5292 25.6203 42.5292C25.6203 42.5292 23.5286 44.2641 21.9321 44.8586C20.0727 45.5509 18.7547 44.777 16.885 45.4409C15.0222 46.1025 13.8849 46.644 12.6145 48.1586C11.0275 50.0504 10.6733 54.1762 10.6733 54.1762L12.6145 70.288L58.4262 69.7056V55.3409C58.4262 55.3409 58.8667 48.9927 56.2909 46.6056C53.9026 44.3923 48.7203 44.8586 48.138 44.8586C47.5556 44.8586 44.8788 45.0035 42.8968 44.4704C41.5509 44.1083 39.5968 43.1115 39.5968 43.1115C39.5968 43.1115 34.9859 43.8759 32.0262 43.6939Z" fill="#A2B3BF"/>
</g>
</svg>
